<?xml version="1.0" standalone="no"?>
<!DOCTYPE svg PUBLIC "-//W3C//DTD SVG 20010904//EN"
 "http://www.w3.org/TR/2001/REC-SVG-20010904/DTD/svg10.dtd">
<svg version="1.0" xmlns="http://www.w3.org/2000/svg"
 width="225.000000pt" height="225.000000pt" viewBox="0 0 225.000000 225.000000"
 preserveAspectRatio="xMidYMid meet">
<metadata>
Created by potrace 1.10, written by Peter Selinger 2001-2011
</metadata>
<g transform="translate(0.000000,225.000000) scale(0.100000,-0.100000)"
fill="#ffffff" stroke="none">
<path d="M373 1959 c-39 -11 -80 -59 -88 -102 -3 -18 -5 -357 -3 -754 3 -711
3 -722 24 -749 11 -15 33 -37 48 -48 27 -21 38 -21 764 -24 836 -3 786 -7 830
78 l22 44 0 726 c0 670 -1 728 -18 759 -9 19 -30 44 -45 55 -28 21 -37 21
-765 23 -429 1 -750 -2 -769 -8z m388 -292 c41 -28 59 -60 59 -110 0 -79 -50
-127 -134 -127 -131 0 -173 193 -53 245 47 21 90 18 128 -8z m750 -352 c60
-22 124 -87 151 -155 20 -51 22 -75 26 -328 l4 -273 -124 3 -123 3 -5 250 c-4
221 -7 253 -23 277 -36 52 -117 59 -173 16 -49 -39 -54 -68 -54 -318 l0 -230
-120 0 -120 0 0 380 0 380 120 0 120 0 0 -52 0 -52 38 38 c20 22 55 47 77 57
50 23 147 25 206 4z m-706 -375 l0 -375 -122 -3 -123 -3 0 374 c0 206 3 377 7
381 4 3 59 5 122 4 l116 -3 0 -375z"/>
</g>
</svg>
